<svg viewBox="0 0 64 64" fill="none" xmlns="http://www.w3.org/2000/svg" width="64" height="64">
  <rect width="64" height="64" rx="14" fill="#ffffff"/>
  <!-- 心臓 -->
  <path d="M32 52 C32 52 10 38 10 24 C10 16.3 16.3 10 24 10 C27.8 10 31.2 11.6 33.6 14.2 C30.8 17 29 20.8 29 25 C29 33.3 35.7 40 44 40 C46.2 40 48.2 39.5 50 38.6 C47 46 38 52 32 52Z" fill="rgba(37,99,235,0.12)" stroke="#2563eb" stroke-width="2" stroke-linejoin="round"/>
  <path d="M36 10 C39.8 10 43.2 11.6 45.6 14.2 C48 16.8 49.4 20.2 49.4 24 C49.4 31.6 44.8 37.2 44.8 37.2" stroke="#2563eb" stroke-width="2" stroke-linecap="round" fill="none"/>
  <!-- 位置ピン -->
  <circle cx="44" cy="23" r="8" fill="#2563eb" opacity="0.15"/>
  <circle cx="44" cy="23" r="5" fill="#2563eb"/>
  <circle cx="44" cy="23" r="2" fill="#fff"/>
  <line x1="44" y1="28" x2="44" y2="36" stroke="#2563eb" stroke-width="2.5" stroke-linecap="round"/>
</svg>
